<?xml version="1.0" encoding="UTF-8"?>
<svg width="1440px" height="206px" viewBox="0 0 1440 206" version="1.1" xmlns="http://www.w3.org/2000/svg" xmlns:xlink="http://www.w3.org/1999/xlink">
    <title>Path 2</title>
    <g id="Landing-Page" stroke="none" stroke-width="1" fill="none" fill-rule="evenodd" fill-opacity="0.1">
        <g id="DarkMode" transform="translate(0.000000, -781.000000)" fill="#53A8E2">
            <g id="Hero" transform="translate(-47.388264, 0.000000)">
                <path d="M43.3451482,936.059053 C43.3451482,936.059053 88.6866884,944.014563 127.542268,938.261165 C166.397848,932.507767 161.550327,929.340933 176.827787,916.474784 C192.105247,903.608634 222.985202,929.182136 256.176198,927.952596 C302.827132,926.224441 313.468349,913.899318 374.85104,872.611387 C436.23373,831.323455 458.808855,849.553403 503.744402,876.953494 C548.679949,904.353586 542.381994,885.81959 593.208454,887.402428 C644.034915,888.985266 677.564365,969.379138 756.606377,972.231823 C835.648388,975.084509 839.463839,782.152632 890.92099,781.012452 C942.37814,779.872272 931.549058,857.408986 968.607688,858.866628 C1005.66632,860.32427 989.03131,963.906273 1068.7219,967.747115 C1148.4125,971.587957 1153.67719,851.533705 1213.67773,849.342771 C1273.67827,847.151837 1297.43874,1007.99323 1369.19427,944.268349 C1440.9498,880.543463 1451.92672,952.702737 1462.353,953.550756 C1472.77928,954.398775 1487.38826,953.881632 1487.38826,953.881632 L1487.38826,987 L23.3882637,987 L23.3882637,942.283021 L38.2526617,937.818507 L43.3451482,936.059053 Z" id="Path-2"></path>
            </g>
        </g>
    </g>
</svg>