<?xml version="1.0" encoding="UTF-8"?>
<svg width="1442px" height="603px" viewBox="0 0 1442 603" version="1.1" xmlns="http://www.w3.org/2000/svg" xmlns:xlink="http://www.w3.org/1999/xlink">
    <title>graph</title>
    <g id="Landing-Page" stroke="none" stroke-width="1" fill="none" fill-rule="evenodd">
        <g id="DarkMode" transform="translate(2.000000, -350.000000)">
            <g id="Hero" transform="translate(-35.388264, 0.000000)">
                <g id="graph" transform="translate(35.000000, 350.076078)">
                    <g id="graph_1" transform="translate(2.388264, 0.923922)">
                        <polygon id="Path-2-Copy" fill-opacity="0.2" fill="#53A8E2" points="0 37.8532113 144.77904 216.453204 232.723606 109.182158 333.961789 88.0348298 457.491904 131.637014 553.448671 97.3546997 607.052188 0.717022418 800.809951 46.2596026 899.262827 131.637014 1019.49324 37.8532113 1127.28341 115.857119 1249.85586 196.249207 1339.90541 88.0348298 1437 115.857119 1437 235.268546 1339.90541 207.110198 1249.85586 314.616331 1150.99467 207.902775 1019.49324 156.838277 895.375843 288.710182 815.594595 172.927143 719.166103 97.3546997 548.796024 189.510809 452.315975 289.128487 325.181555 282.565471 229.790145 371.904275 75.9428595 359.548432 0.757366284 156.572592"></polygon>
                        <polyline id="Path-2-Copy" stroke="#53A8E2" opacity="0.9" stroke-linecap="round" stroke-linejoin="round" points="0 37.8532113 144.77904 216.453204 232.723606 109.182158 333.961789 88.0348298 457.491904 131.637014 553.448671 97.3546997 606.869662 1.89320075 799.868873 45.6446464 899.262827 131.637014 1019.49324 37.8532113 1127.28341 115.857119 1249.85586 196.249207 1339.90541 88.0348298 1437 115.857119"></polyline>
                    </g>
                    <g id="graph_2" transform="translate(0.388264, 96.923922)">
                        <polygon id="Path-2-Copy" fill-opacity="0.2" fill="#76DDFB" points="0 62.3566058 74.0915197 263.225993 229.822147 276.484464 325.674613 186.68738 451.736394 194.140823 549.570576 94.5777727 718.5 3.16785197 815.594595 77.6785593 895.11924 194.140823 1019.49324 62.3566058 1149.34778 112.194462 1249.85586 219.667529 1339.90541 112.194462 1437 139.826158 1437 208.596391 1340.71611 261.263313 1292.57179 372.943395 1141.37825 227.761363 1004.3151 342.11419 899.629065 261.263313 808.115158 273.462618 674.915289 163.05887 548.234815 243.848228 407.797297 411.162671 326.780439 335.636899 229.061817 361.766937 135.984583 460.943825 75.9914543 413.032332 0.338977711 210.945163 0.230528548 65.2331781"></polygon>
                        <polyline id="Path-2-Copy" stroke="#76DDFB" opacity="0.9" stroke-linecap="round" stroke-linejoin="round" points="0 59.3206769 74.0915197 260.190064 229.822147 273.448535 325.674613 183.651451 451.736394 191.104894 549.570576 91.5418439 718.5 0.131923107 815.594595 74.6426304 895.11924 191.104894 1019.49324 59.3206769 1149.34778 109.158533 1249.85586 216.6316 1339.90541 109.158533 1437 136.790229"></polyline>
                    </g>
                    <g id="graph_3" transform="translate(2.388264, 267.923922)">
                        <polygon id="Path-2-Copy" fill-opacity="0.25" fill="#2C82BE" points="0 47.9740177 74.0915197 247.970058 135.932432 297.5972 229.670437 197.894299 325.674613 171.764223 407.797297 247.970058 549.570576 80.0550924 674.541939 0.47230143 807.754319 110.08788 898.238783 97.5951867 1004.78683 179.185259 1139.85641 63.2293539 1293.36827 210.918011 1339.90541 97.5951867 1437 47.9740177 1437 327.614424 0.3296808 327.614424"></polygon>
                        <polyline id="Path-2-Copy" stroke="#2C82BE" stroke-linecap="round" stroke-linejoin="round" points="0 47.9740177 74.0915197 247.970058 135.932432 297.5972 229.670437 197.894299 325.674613 171.764223 407.797297 247.970058 549.570576 80.0550924 674.541939 0.47230143 807.754319 110.08788 898.238783 97.5951867 1004.78683 179.185259 1139.85641 63.2293539 1293.36827 210.918011 1339.90541 97.5951867 1437 47.9740177"></polyline>
                    </g>
                </g>
            </g>
        </g>
    </g>
</svg>